<svg width="146" height="147" viewBox="0 0 146 147" fill="none" xmlns="http://www.w3.org/2000/svg">
<path d="M14.5783 102.045C17.146 108.007 21.4545 113.083 26.8662 116.644L26.883 116.661L27.0143 116.747C55.9539 135.587 91.6525 138.289 119.003 116.666L119.003 116.666C125.922 111.191 129.698 105.505 131.796 100.341C133.887 95.1942 134.282 90.6335 134.537 87.5211C135.37 77.3811 132.014 66.6232 127.282 57.3587C135.603 41.2607 135.508 17.7387 125.095 2.64213L125.092 2.63719C124.587 1.91104 123.767 1.48601 122.844 1.54462C107.556 2.2767 94.4056 9.39354 85.7187 21.9153C77.2587 19.6953 68.6588 19.6956 60.1866 21.9154C51.497 9.38943 38.3549 2.27285 23.0217 1.5167L23.0116 1.51619L23.0014 1.51583C22.1158 1.4842 21.3143 1.88295 20.8043 2.58416L20.7928 2.59997L20.7817 2.61608C10.3841 17.7257 10.2879 41.2472 18.6099 57.3454C13.9985 66.4158 11.3361 76.2886 11.3361 85.8247C11.3361 91.7829 12.4835 97.1852 14.5783 102.045Z" fill="#0D0143" stroke="white" stroke-width="3"/>
<circle cx="73" cy="74" r="71.5" fill="#F9B04F" stroke="white" stroke-width="3"/>
<path d="M12.8361 85.8247C12.8361 91.5853 13.9444 96.7849 15.9558 101.451C18.4187 107.17 22.5647 112.041 27.778 115.449C27.7916 115.462 27.819 115.476 27.8327 115.49C56.3756 134.071 91.3494 136.616 118.072 115.49C131.509 104.858 132.535 93.583 133.042 87.3983C133.849 77.5739 130.565 67.0242 125.844 57.8429C125.68 57.5282 125.68 57.1861 125.844 56.8714C134.054 41.1906 133.958 18.1347 123.86 3.49378C123.641 3.17907 123.313 3.01488 122.93 3.04224C107.988 3.75376 95.1944 10.7321 86.7793 23.0195C86.5193 23.4026 86.0678 23.5668 85.6299 23.4437C77.2285 21.186 68.6903 21.186 60.2752 23.4437C59.8374 23.5668 59.3858 23.4026 59.1258 23.0195C50.7108 10.7321 37.9308 3.75376 22.9478 3.01488C22.5647 3.00119 22.2363 3.16539 22.0174 3.46642C11.933 18.121 11.8372 41.1769 20.047 56.8577C20.2112 57.1724 20.2112 57.5145 20.047 57.8292C15.4632 66.7779 12.8361 76.4929 12.8361 85.8247Z" fill="#0D0143"/>
<path d="M25.315 8.22812C24.8909 8.18707 24.5077 8.406 24.3025 8.77544C17.4746 21.2954 18.0083 37.6057 23.6183 50.1804C23.892 50.7824 24.8361 50.4951 24.6993 49.551C23.2626 39.6171 22.7152 28.2054 27.6275 19.8587C27.8327 19.5166 28.1885 19.3251 28.5853 19.3388C36.3709 19.6945 43.0893 22.4722 49.5477 26.9876C49.8761 27.2202 50.2592 27.2476 50.615 27.0697C51.6002 26.5908 52.5854 26.1392 53.5842 25.7288C54.2273 25.4688 54.4463 24.6752 54.0221 24.1142C47.0164 14.6592 37.1235 9.18594 25.315 8.22812Z" fill="#F9B04F"/>
<path d="M47.8373 17.4231C48.371 19.5987 48.6036 22.8006 46.0038 24.7162C47.1942 25.414 48.371 26.1803 49.5477 27.0013C49.8761 27.2339 50.2592 27.2612 50.615 27.0834C51.6002 26.6045 52.5853 26.1529 53.5842 25.7424C54.2273 25.4825 54.4462 24.6888 54.0221 24.1278C52.1612 21.5965 50.095 19.3661 47.8373 17.4231Z" fill="#DB8B23"/>
<path d="M20.5808 18.4904C18.0221 29.0264 19.363 40.6706 23.6048 50.1804C23.8784 50.7824 24.8225 50.4951 24.6857 49.551C23.6048 42.039 23.0164 33.6786 24.932 26.4403C20.8681 24.8667 20.2114 20.7481 20.5808 18.4904Z" fill="#DB8B23"/>
<path d="M108.659 80.762C103.008 80.762 98.4513 82.2124 93.3749 84.3333C92.4171 84.7301 92.0066 83.827 91.6508 83.2523C83.5094 70.3492 62.4101 70.3492 54.2687 83.2523C53.9129 83.827 53.4888 84.7301 52.5446 84.3333C47.4682 82.1987 42.9117 80.762 37.2606 80.762C30.1865 80.762 23.0439 83.7039 23.0439 91.2706C23.0439 99.412 29.1055 106.459 37.3701 111.836C59.8924 126.504 86.0544 126.504 108.577 111.836C116.828 106.459 122.876 99.3983 122.876 91.2706C122.876 83.7039 115.733 80.762 108.659 80.762Z" fill="#F9E9D9"/>
<path d="M33.6894 81.022C27.9698 81.8977 23.0439 84.9901 23.0439 91.2569C23.0439 99.3983 29.1055 106.445 37.3701 111.823C51.2584 120.867 66.515 124.329 81.4706 122.222C34.7019 120.251 24.6996 87.1246 33.6894 81.022Z" fill="#F0D7BD"/>
<path d="M72.9594 25.7151C42.3777 25.7151 17.8577 57.9934 17.8303 86.0437C17.8303 87.2204 19.486 87.5214 19.8828 86.4131C22.2636 79.9137 29.502 76.8076 37.2603 76.8076C41.7209 76.8076 46.5784 77.7928 51.1349 79.4895C51.5727 79.6537 52.0517 79.5169 52.339 79.1474C62.4234 66.3948 83.509 66.3948 93.5797 79.1474C93.8671 79.5169 94.346 79.6537 94.7838 79.4895C99.354 77.7928 104.211 76.8076 108.658 76.8076C116.417 76.8076 123.655 79.9137 126.022 86.4131C126.433 87.5214 128.075 87.2204 128.075 86.0437C128.061 57.9934 103.541 25.7151 72.9594 25.7151Z" fill="#F9B04F"/>
<path d="M17.8303 86.0437C17.8303 87.2204 19.486 87.5214 19.8828 86.4131C21.1279 83.0197 23.7004 80.5431 26.998 78.9558C27.3264 51.1656 45.2238 35.1701 45.9901 34.5133C29.1462 46.0207 17.844 67.0105 17.8303 86.0437Z" fill="#DB8B23"/>
<path d="M120.604 8.22813C108.782 9.18594 98.9027 14.6592 91.8833 24.1142C91.4728 24.6752 91.6917 25.4551 92.3212 25.7288C93.32 26.1529 94.3189 26.5908 95.2904 27.0697C95.6461 27.2476 96.0429 27.2065 96.3577 26.9876C102.83 22.4722 109.548 19.6945 117.334 19.3388C117.731 19.3251 118.086 19.503 118.292 19.8587C123.313 28.2054 122.67 39.6171 121.22 49.5646C121.097 50.3856 122.095 51.3708 122.506 50.5498C128.376 38.8371 128.431 21.3091 121.603 8.78913C121.411 8.40601 121.028 8.20076 120.604 8.22813Z" fill="#F9B04F"/>
<path d="M96.0428 19.2977C94.5651 20.7618 93.1694 22.3764 91.8695 24.1142C91.459 24.6752 91.6779 25.4551 92.3074 25.7288C93.3062 26.1529 94.3051 26.5908 95.2766 27.0697C95.6323 27.2476 96.0292 27.2065 96.3439 26.9876C97.7122 26.0298 99.0942 25.1541 100.49 24.3605C97.1922 24.2784 96.2891 21.227 96.0428 19.2977Z" fill="#DB8B23"/>
<path d="M120.946 26.1392C122.971 33.446 122.328 41.9295 121.233 49.551C121.11 50.3719 122.109 51.3571 122.519 50.5361C126.351 42.8873 127.705 32.7755 126.282 23.1837C126.542 26.2761 123.888 28.4106 120.946 26.1392Z" fill="#DB8B23"/>
<path d="M98.8752 89.7928C93.3062 96.7028 83.1534 100.11 76.6129 94.1577C76.476 94.0346 76.3939 93.8704 76.3666 93.6788L75.4498 87.3846C75.3951 87.0152 75.6003 86.6594 75.9561 86.5226C78.6516 85.51 80.7041 83.1702 81.3062 80.2968C82.2503 75.7403 76.3255 75.8635 72.9869 75.8635C69.6482 75.8635 63.7097 75.7403 64.6676 80.2968C65.2696 83.1702 67.3084 85.51 70.0176 86.5226C70.3734 86.6594 70.5786 87.0015 70.5239 87.3846L69.6071 93.6788C69.5798 93.8704 69.4977 94.0209 69.3609 94.1577C62.8067 100.11 52.6538 96.7028 47.0985 89.7928C46.4554 88.9992 45.2787 89.916 45.7576 90.7506C49.0689 96.5112 55.7599 100.739 62.4783 101.027C62.9435 101.04 63.2993 101.451 63.2308 101.916C62.3551 108.84 66.5285 115.941 73.0005 115.941C79.4863 115.941 83.6596 108.826 82.7703 101.916C82.7155 101.451 83.0576 101.04 83.5228 101.027C90.2412 100.739 96.9322 96.5112 100.244 90.7506C100.695 89.916 99.5046 88.9992 98.8752 89.7928Z" fill="#0D0143"/>
<path d="M41.8854 62.0299C40.0792 62.2352 39.354 66.1759 41.6938 66.0801C45.4293 65.9296 51.6961 67.2979 55.1032 69.7061C56.0747 70.4039 57.2788 69.1588 56.5673 68.201C53.4202 64.0413 46.8387 61.4552 41.8854 62.0299Z" fill="#0D0143"/>
<path d="M104.034 62.0299C98.9983 61.4415 92.28 64.1234 89.215 68.4062C88.5308 69.364 89.7076 70.5681 90.6791 69.8977C94.1682 67.4894 100.462 65.9569 104.239 66.0938C106.428 66.1622 105.922 62.2488 104.034 62.0299Z" fill="#0D0143"/>
<path fill-rule="evenodd" clip-rule="evenodd" d="M77.9403 100.288C76.312 99.7541 74.8069 98.9605 73.4386 97.9069C73.1512 97.688 72.7544 97.688 72.4671 97.9069C71.0988 98.9742 69.5936 99.7678 67.9653 100.288C67.7054 100.37 67.5275 100.561 67.4454 100.821C65.9403 105.939 68.6358 111.973 72.946 111.973C77.2561 111.973 79.9517 105.939 78.4466 100.821C78.3918 100.561 78.2003 100.37 77.9403 100.288Z" fill="#FF8CC8"/>
<path fill-rule="evenodd" clip-rule="evenodd" d="M67.3084 101.396C66.159 106.377 68.8135 111.973 72.9595 111.973C73.9857 111.973 74.9161 111.631 75.7234 111.043C75.1761 106.24 71.7827 101.519 67.3084 101.396Z" fill="#FFBCD8"/>
<path d="M48.4259 51.7266C45.0735 51.2887 42.3643 52.4381 42.3643 54.2853C42.3643 56.1325 45.0735 57.9797 48.4259 58.4176C51.7782 58.8554 54.4874 57.7061 54.4874 55.8589C54.4874 54.0116 51.7782 52.1644 48.4259 51.7266Z" fill="#F9E9D9"/>
<path d="M97.3428 51.7266C93.9905 52.1644 91.2812 54.0116 91.2812 55.8588C91.2812 57.7061 93.9905 58.8554 97.3428 58.4176C100.695 57.9797 103.404 56.1325 103.404 54.2853C103.404 52.4381 100.695 51.3024 97.3428 51.7266Z" fill="#F9E9D9"/>
</svg>
